<svg version="1.1" id="Layer_1" xmlns="http://www.w3.org/2000/svg" xmlns:xlink="http://www.w3.org/1999/xlink" x="0px" y="0px"
	 width="100%" viewBox="0 0 1024 1024" enable-background="new 0 0 1024 1024" xml:space="preserve">
<path fill="#00FFFF" opacity="1.000000" stroke="none" 
	d="
M685.132629,861.659668 
	C692.111877,861.662048 698.623657,861.424561 705.107605,861.747437 
	C709.621765,861.972229 710.778076,860.204224 710.729919,855.937256 
	C710.536072,838.772949 710.649902,821.605225 710.650330,804.438721 
	C710.652527,721.939575 710.663330,639.440491 710.639648,556.941345 
	C710.637878,550.855530 711.806885,545.364929 717.042480,541.488525 
	C719.828735,539.425598 722.918335,538.612122 726.387390,538.620605 
	C749.387024,538.676819 772.386902,538.617676 795.386597,538.663879 
	C805.717773,538.684631 811.341003,544.422791 811.342712,554.847961 
	C811.354248,626.680542 811.348145,698.513123 811.348450,770.345703 
	C811.348450,777.951660 813.246704,779.533081 820.531921,777.223389 
	C830.939392,773.923828 837.243896,766.647461 839.592285,756.041748 
	C840.527100,751.820190 840.695496,747.499329 840.692810,743.147705 
	C840.641052,659.315247 840.656433,575.482788 840.636230,491.650360 
	C840.635742,489.530426 841.004639,487.341705 839.880920,484.728912 
	C832.579163,486.323242 825.318665,487.851471 818.085083,489.497955 
	C789.104187,496.094543 760.091736,502.542358 730.701111,507.087280 
	C706.415527,510.842773 682.137878,514.597046 657.596863,516.489136 
	C641.344177,517.742188 625.144775,519.572510 608.805359,519.407654 
	C602.839539,519.347412 602.232971,520.082703 602.273987,526.057678 
	C602.318787,532.559448 602.126709,539.003540 600.380859,545.340637 
	C596.326965,560.055603 583.248596,570.316956 568.043823,570.341797 
	C531.877625,570.400879 495.711212,570.409180 459.545013,570.352600 
	C439.110748,570.320618 424.048096,555.278687 423.690399,534.714905 
	C423.626617,531.049316 423.590637,527.379456 423.696533,523.716003 
	C423.778351,520.885864 422.877258,519.296631 419.742889,519.362915 
	C406.409729,519.644836 393.157074,518.088623 379.895447,517.163269 
	C363.505280,516.019470 347.150909,514.125854 330.846863,512.041382 
	C307.793701,509.094025 284.851318,505.362091 261.932892,501.480682 
	C238.506058,497.513153 215.354370,492.296814 192.246948,486.836884 
	C190.201447,486.353577 188.201996,485.286194 185.976578,485.874939 
	C184.536667,487.881775 185.071289,490.127258 185.069885,492.221619 
	C185.012421,577.719849 185.017075,663.218140 184.951263,748.716431 
	C184.942993,759.453674 188.375259,768.272705 197.838501,774.124451 
	C201.443405,776.353577 205.252014,777.728638 209.591431,777.728638 
	C258.589905,777.728821 307.588348,777.786743 356.586823,777.822266 
	C368.919983,777.831238 381.253174,777.797974 393.586273,777.829224 
	C395.574188,777.834290 397.600128,777.873962 399.542664,778.243530 
	C409.249298,780.090515 413.795990,785.755737 413.346802,795.249451 
	C412.992920,802.728821 406.614929,808.500977 397.772980,809.281189 
	C396.283600,809.412598 394.774902,809.337708 393.275146,809.337769 
	C332.775787,809.341064 272.276428,809.346069 211.777084,809.341614 
	C179.807465,809.339294 154.702591,784.311157 154.695175,752.372131 
	C154.673630,659.706482 154.657715,567.040833 154.754440,474.375305 
	C154.758759,470.245300 153.758347,467.249420 150.675095,464.317139 
	C137.041611,451.351257 130.692917,435.164062 130.672150,416.462799 
	C130.627365,376.129944 130.606827,335.796906 130.675949,295.464142 
	C130.719040,270.326324 148.606079,247.877060 173.053024,242.175919 
	C177.091797,241.234055 181.228302,240.819504 185.424088,240.824112 
	C238.423416,240.882309 291.423096,240.803848 344.421753,241.005142 
	C349.671417,241.025070 350.929352,239.309402 350.752991,234.401199 
	C350.406097,224.747131 350.784943,215.069626 350.630157,205.405563 
	C350.028412,167.834244 380.324188,137.026459 416.856262,134.632935 
	C439.660309,133.138840 462.496674,134.160522 485.316956,134.053391 
	C523.148987,133.875778 560.982605,133.940750 598.815308,134.020035 
	C613.700928,134.051224 628.000793,136.920502 640.766174,144.944138 
	C659.739258,156.869553 670.976013,174.031311 674.340759,196.252167 
	C676.273193,209.013885 675.184387,221.862396 675.235596,234.667709 
	C675.254272,239.333633 676.380981,240.977478 681.354614,240.961975 
	C734.020081,240.797760 786.686279,240.895020 839.352234,240.871933 
	C867.134460,240.859772 890.016052,260.395599 894.342102,287.809570 
	C895.071594,292.432404 895.346313,297.039459 895.341919,301.705688 
	C895.307800,337.871918 895.119385,374.039856 895.408325,410.203857 
	C895.580322,431.732574 889.533142,450.513641 873.444336,465.383850 
	C870.938232,467.700165 871.285767,470.418854 871.285400,473.203552 
	C871.273865,557.869263 871.317505,642.535095 871.210999,727.200684 
	C871.198242,737.329956 871.580688,747.442871 870.547791,757.614136 
	C868.054932,782.162231 850.052856,802.083740 826.493530,808.057251 
	C824.085938,808.667786 821.601685,809.125916 819.128235,809.298096 
	C812.435547,809.763977 811.604675,810.134094 811.471130,816.927673 
	C811.202515,830.588928 811.408752,844.258972 811.329651,857.924866 
	C811.313049,860.787231 812.602356,861.733643 815.289673,861.668945 
	C819.453735,861.568848 823.622437,861.629028 827.788757,861.665100 
	C837.304749,861.747498 844.158325,868.057617 844.229065,876.770630 
	C844.301636,885.697815 837.309875,892.337952 827.639709,892.340515 
	C747.640564,892.361511 667.641418,892.352905 587.642273,892.354065 
	C533.142883,892.354858 478.643463,892.376038 424.144043,892.342773 
	C412.610962,892.335693 405.676849,883.231812 408.679840,872.257812 
	C410.363159,866.106445 415.769531,861.831604 422.229156,861.679077 
	C426.226959,861.584595 430.251678,861.385376 434.222504,861.723755 
	C438.729156,862.107788 439.901672,860.263733 439.882935,855.988403 
	C439.756134,826.989380 439.846527,797.989502 439.858704,768.989868 
	C439.864899,754.156738 439.822021,739.323547 439.861389,724.490479 
	C439.894775,711.907776 446.093811,705.675903 458.536438,705.667419 
	C481.036194,705.652222 503.535980,705.651184 526.035706,705.678711 
	C537.935059,705.693298 544.186340,711.952515 544.194336,723.912292 
	C544.223633,767.578369 544.217712,811.244385 544.222351,854.910461 
	C544.223022,861.645447 544.216431,861.650391 551.146057,861.660034 
	C556.645996,861.667664 562.145935,861.661438 567.645874,861.661255 
	C575.641296,861.660950 575.648071,861.660828 575.648438,853.884521 
	C575.650513,808.885010 575.648926,763.885437 575.649048,718.885925 
	C575.649170,693.886169 575.639160,668.886475 575.655884,643.886719 
	C575.663574,632.387207 581.365662,626.601074 592.730530,626.591064 
	C615.396912,626.570984 638.063354,626.569580 660.729675,626.606201 
	C671.549377,626.623657 677.342041,632.464050 677.343750,643.315186 
	C677.354614,713.647766 677.348877,783.980408 677.349976,854.312988 
	C677.350098,861.625000 677.354126,861.625000 685.132629,861.659668 
M851.186096,443.681915 
	C859.744629,435.144958 863.833496,424.977570 863.765259,412.746674 
	C863.548645,373.918121 863.700745,335.087555 863.668945,296.257843 
	C863.657227,281.982758 854.037109,272.359650 839.938293,272.359467 
	C749.946594,272.358337 659.954834,272.350525 569.963135,272.350922 
	C442.141602,272.351532 314.320038,272.364044 186.498505,272.330017 
	C182.435272,272.328949 178.576187,272.664368 174.931763,274.706024 
	C166.193573,279.601135 162.375031,287.276093 162.360657,296.977692 
	C162.303375,335.640686 162.320526,374.303864 162.340485,412.966949 
	C162.351837,434.963135 173.234482,448.917847 194.454132,454.628723 
	C218.353622,461.060760 242.550461,466.146057 266.895264,470.475983 
	C285.842804,473.846039 304.865753,476.857300 323.929962,479.486145 
	C340.040771,481.707733 356.242767,483.316833 372.434143,484.891327 
	C387.477966,486.354248 402.569733,487.318878 417.621918,488.703888 
	C422.485657,489.151459 423.918030,487.417236 423.786316,482.590698 
	C423.546631,473.806305 422.851471,464.913483 425.186951,456.269470 
	C429.434082,440.550079 442.135864,431.210052 461.069153,431.028564 
	C495.729248,430.696289 530.395264,430.829041 565.057983,430.973907 
	C587.535706,431.067871 600.201721,446.570068 601.747498,462.685516 
	C602.419250,469.688477 602.201538,476.651764 602.176208,483.623627 
	C602.161926,487.576080 603.443481,488.779846 607.378967,488.733795 
	C624.201721,488.536957 640.940308,486.975891 657.633423,485.288696 
	C681.054016,482.921539 704.356323,479.502869 727.610962,475.757477 
	C762.377686,470.157959 796.843262,463.161072 830.970642,454.499725 
	C838.321899,452.634033 845.060547,449.441315 851.186096,443.681915 
M638.107666,185.414612 
	C628.755737,171.627640 615.695312,165.282791 599.098206,165.313889 
	C542.438293,165.420105 485.778046,165.364700 429.117981,165.321274 
	C424.443695,165.317703 419.828674,165.615295 415.204346,166.304810 
	C399.332764,168.671371 385.183136,182.070892 382.321869,197.847153 
	C380.134064,209.910004 381.755188,222.111008 381.385590,234.243683 
	C381.184052,240.859940 381.354889,240.856155 387.900055,240.856018 
	C432.728119,240.855057 477.556213,240.855835 522.384277,240.860733 
	C561.046387,240.864960 599.709045,240.777634 638.369934,240.999405 
	C643.545105,241.029099 645.000183,239.456680 644.760681,234.464340 
	C644.377747,226.483582 644.875122,218.463440 644.595703,210.474106 
	C644.297302,201.943695 642.806213,193.611862 638.107666,185.414612 
M740.340088,738.499939 
	C740.342773,777.472229 740.447144,816.445007 740.226990,855.416077 
	C740.197510,860.630493 741.816772,861.953857 746.761414,861.762573 
	C756.074097,861.402283 765.410767,861.663635 774.737427,861.660828 
	C781.631104,861.658813 781.646057,861.654785 781.646851,854.815308 
	C781.651672,811.845947 781.648743,768.876587 781.649536,725.907227 
	C781.650513,675.776306 781.597229,625.645203 781.745789,575.514709 
	C781.759644,570.857788 780.683777,569.018005 775.685486,569.216675 
	C766.207214,569.593506 756.703369,569.326416 747.210144,569.327637 
	C740.351624,569.328491 740.347656,569.329102 740.347290,576.114990 
	C740.344238,629.909973 740.342896,683.704895 740.340088,738.499939 
M571.649963,505.500092 
	C571.649536,493.676849 571.667664,481.853607 571.641235,470.030426 
	C571.627319,463.796204 570.273926,462.393738 564.014709,462.388397 
	C529.877319,462.359222 495.739899,462.358337 461.602509,462.386475 
	C455.912079,462.391144 454.371460,463.871552 454.360687,469.383240 
	C454.320038,490.198639 454.324249,511.014282 454.368805,531.829651 
	C454.380890,537.465698 455.559906,538.654907 461.035370,538.659363 
	C495.838867,538.687805 530.642578,538.628418 565.445679,538.744934 
	C570.048401,538.760376 571.717712,536.817566 571.671387,532.477539 
	C571.579041,523.819336 571.647522,515.159363 571.649963,505.500092 
M646.710449,674.502075 
	C646.705688,670.339050 646.554138,666.169434 646.741821,662.015137 
	C646.895935,658.605652 645.674438,657.252502 642.151917,657.301819 
	C631.497009,657.451294 620.836548,657.462219 610.182434,657.280640 
	C606.491516,657.217773 605.280762,658.478271 605.285767,662.185547 
	C605.372803,726.960754 605.376648,791.736145 605.283325,856.511292 
	C605.277771,860.365845 606.324341,861.834167 610.364319,861.734070 
	C620.182800,861.490906 630.011414,861.660950 639.835938,861.661743 
	C646.648315,861.662292 646.689758,861.660217 646.691589,854.840332 
	C646.707764,795.060608 646.708008,735.280823 646.710449,674.502075 
M496.497864,861.658203 
	C500.492584,861.659546 504.507080,861.413147 508.476715,861.729309 
	C512.774048,862.071533 514.035278,860.252563 513.772888,856.241638 
	C513.512695,852.263916 513.713989,848.255981 513.714233,844.261292 
	C513.716370,810.639160 513.628296,777.016418 513.822266,743.395447 
	C513.850220,738.549072 512.391724,737.105042 507.604095,737.248718 
	C496.794830,737.572998 485.968445,737.417358 475.150543,737.308289 
	C471.950714,737.276001 470.272919,737.989197 470.282532,741.714966 
	C470.381836,780.163757 470.376648,818.613098 470.296234,857.062012 
	C470.288879,860.584290 471.651520,861.759399 475.026855,861.689392 
	C481.848083,861.547852 488.674530,861.654358 496.497864,861.658203 
z"/>
</svg>