<svg
  xmlns="http://www.w3.org/2000/svg"
  width="24"
  height="24"
  viewBox="0 0 24 24"
  fill="none"
>
  <path
    d="M7.5 12C7.5 10.7574 8.50736 9.75 9.75 9.75H13.5V7.5L17.25 11.25L13.5 15V12.75H9.75C9.33579 12.75 9 13.0858 9 13.5V16.5H7.5V12Z"
    fill="#00FFFF"
  />
  <path
    d="M5.25 3.75H14.25C15.4926 3.75 16.5 4.75736 16.5 6V8.25H15V6C15 5.58579 14.6642 5.25 14.25 5.25H5.25C4.83579 5.25 4.5 5.58579 4.5 6V18C4.5 18.4142 4.83579 18.75 5.25 18.75H14.25C14.6642 18.75 15 18.4142 15 18V15.75H16.5V18C16.5 19.2426 15.4926 20.25 14.25 20.25H5.25C4.00736 20.25 3 19.2426 3 18V6C3 4.75736 4.00736 3.75 5.25 3.75Z"
    fill="#00FFFF"
  />
</svg>
